<svg width="1054" height="97" viewBox="0 0 1054 97" fill="none" xmlns="http://www.w3.org/2000/svg">
                            <rect x="804.095" y="22.6667" width="151.499" height="5.66667" fill="#E0E0E0"/>
                            <ellipse cx="962.695" cy="25.5" rx="21.3046" ry="25.5" fill="#E0E0E0"/>
                            <rect x="501.096" y="22.6667" width="302.998" height="5.66667" fill="#E0E0E0"/>
                            <ellipse cx="659.697" cy="25.5" rx="21.3046" ry="25.5" fill="#E0E0E0"/>
                            <rect x="198.087" y="22.6667" width="302.998" height="5.66667" fill="#E0E0E0"/>
                            <ellipse cx="356.687" cy="25.5" rx="21.3046" ry="25.5" fill="#E0E0E0"/>
                            <rect x="53.3046" y="22.6667" width="144.398" height="5.66667" fill="#E0E0E0"/>
                            <ellipse cx="53.3046" cy="25.5" rx="21.3046" ry="25.5" fill="#F8A01A"/>
                            <ellipse rx="14.2031" ry="17" transform="matrix(-1 0 0 1 53.3047 25.5)" fill="white"/>
                            <path d="M875.225 72.7308C874.603 68.8423 871.558 66.5696 867.714 66.5696C863.009 66.5696 859.538 70.0941 859.538 75.9091C859.538 81.7241 862.991 85.2486 867.714 85.2486C871.709 85.2486 874.63 82.745 875.225 79.1495L872.455 79.1406C871.984 81.4666 870.031 82.745 867.732 82.745C864.616 82.745 862.263 80.3569 862.263 75.9091C862.263 71.4968 864.607 69.0732 867.741 69.0732C870.058 69.0732 872.002 70.3782 872.455 72.7308H875.225ZM894.301 75.9091C894.301 70.0941 890.821 66.5696 886.116 66.5696C881.393 66.5696 877.921 70.0941 877.921 75.9091C877.921 81.7152 881.393 85.2486 886.116 85.2486C890.821 85.2486 894.301 81.7241 894.301 75.9091ZM891.584 75.9091C891.584 80.3391 889.241 82.745 886.116 82.745C882.982 82.745 880.647 80.3391 880.647 75.9091C880.647 71.479 882.982 69.0732 886.116 69.0732C889.241 69.0732 891.584 71.479 891.584 75.9091ZM912.396 66.8182H909.68V80.1705H909.511L900.26 66.8182H897.721V85H900.464V71.6655H900.633L909.875 85H912.396V66.8182ZM916.398 85H919.141V77.0721H926.865V74.7195H919.141V69.1797H927.673V66.8182H916.398V85ZM933.79 66.8182H931.046V85H933.79V66.8182ZM937.785 85H940.528V78.1197H944.257C944.319 78.1197 944.372 78.1197 944.434 78.1197L948.127 85H951.252L947.222 77.6403C949.45 76.8146 950.56 74.9592 950.56 72.5178C950.56 69.1708 948.482 66.8182 944.265 66.8182H937.785V85ZM940.528 75.7582V69.1708H943.972C946.68 69.1708 947.799 70.4581 947.799 72.5178C947.799 74.5685 946.68 75.7582 944.008 75.7582H940.528ZM953.898 66.8182V85H956.508V71.8342H956.677L962.039 84.9734H964.205L969.567 71.843H969.736V85H972.346V66.8182H969.017L963.229 80.9517H963.015L957.227 66.8182H953.898ZM977.87 85L979.539 80.1882H986.642L988.302 85H991.214L984.671 66.8182H981.501L974.958 85H977.87ZM980.338 77.88L983.019 70.1207H983.161L985.843 77.88H980.338ZM1008.09 72.7308C1007.46 68.8423 1004.42 66.5696 1000.58 66.5696C995.87 66.5696 992.399 70.0941 992.399 75.9091C992.399 81.7241 995.852 85.2486 1000.58 85.2486C1004.57 85.2486 1007.49 82.745 1008.09 79.1495L1005.32 79.1406C1004.85 81.4666 1002.89 82.745 1000.59 82.745C997.477 82.745 995.124 80.3569 995.124 75.9091C995.124 71.4968 997.468 69.0732 1000.6 69.0732C1002.92 69.0732 1004.86 70.3782 1005.32 72.7308H1008.09ZM1014.11 66.8182H1011.37V85H1014.11V66.8182ZM1033.9 75.9091C1033.9 70.0941 1030.42 66.5696 1025.72 66.5696C1020.99 66.5696 1017.52 70.0941 1017.52 75.9091C1017.52 81.7152 1020.99 85.2486 1025.72 85.2486C1030.42 85.2486 1033.9 81.7241 1033.9 75.9091ZM1031.18 75.9091C1031.18 80.3391 1028.84 82.745 1025.72 82.745C1022.58 82.745 1020.25 80.3391 1020.25 75.9091C1020.25 71.479 1022.58 69.0732 1025.72 69.0732C1028.84 69.0732 1031.18 71.479 1031.18 75.9091ZM1024.61 64.9982H1026.74L1029.49 60.9055H1026.69L1024.61 64.9982ZM1052 66.8182H1049.28V80.1705H1049.11L1039.86 66.8182H1037.32V85H1040.06V71.6655H1040.23L1049.47 85H1052V66.8182Z" fill="black"/>
                            <path d="M614.533 77.5945H617.179C617.099 74.6825 614.524 72.5696 610.831 72.5696C607.182 72.5696 604.386 74.6559 604.386 77.7898C604.386 80.32 606.197 81.8026 609.118 82.5927L611.266 83.1786C613.21 83.6935 614.711 84.3327 614.711 85.9485C614.711 87.7241 613.015 88.896 610.68 88.896C608.567 88.896 606.809 87.9549 606.65 85.9751H603.898C604.075 89.2688 606.623 91.3018 610.698 91.3018C614.968 91.3018 617.427 89.0558 617.427 85.9751C617.427 82.6992 614.507 81.4297 612.198 80.8615L610.423 80.3999C609.002 80.0359 607.111 79.37 607.12 77.63C607.12 76.0852 608.532 74.94 610.769 74.94C612.855 74.94 614.338 75.9165 614.533 77.5945ZM620.706 91H632.211V88.6385H623.449V83.0721H631.51V80.7195H623.449V75.1797H632.105V72.8182H620.706V91ZM635.769 91H638.512V84.1197H642.241C642.303 84.1197 642.356 84.1197 642.419 84.1197L646.112 91H649.237L645.206 83.6403C647.434 82.8146 648.544 80.9592 648.544 78.5178C648.544 75.1708 646.467 72.8182 642.25 72.8182H635.769V91ZM638.512 81.7582V75.1708H641.957C644.665 75.1708 645.783 76.4581 645.783 78.5178C645.783 80.5685 644.665 81.7582 641.992 81.7582H638.512ZM653.008 72.8182H650.042L656.585 91H659.755L666.298 72.8182H663.332L658.272 87.6264H658.068L653.008 72.8182ZM671.667 72.8182H668.923V91H671.667V72.8182ZM690.763 78.7308C690.141 74.8423 687.096 72.5696 683.252 72.5696C678.547 72.5696 675.076 76.0941 675.076 81.9091C675.076 87.7241 678.529 91.2486 683.252 91.2486C687.247 91.2486 690.168 88.745 690.763 85.1495L687.993 85.1406C687.522 87.4666 685.569 88.745 683.27 88.745C680.154 88.745 677.801 86.3569 677.801 81.9091C677.801 77.4968 680.145 75.0732 683.279 75.0732C685.596 75.0732 687.54 76.3782 687.993 78.7308H690.763ZM696.789 72.8182H694.045V91H696.789V72.8182ZM716.577 81.9091C716.577 76.0941 713.097 72.5696 708.392 72.5696C703.669 72.5696 700.198 76.0941 700.198 81.9091C700.198 87.7152 703.669 91.2486 708.392 91.2486C713.097 91.2486 716.577 87.7241 716.577 81.9091ZM713.861 81.9091C713.861 86.3391 711.517 88.745 708.392 88.745C705.258 88.745 702.923 86.3391 702.923 81.9091C702.923 77.479 705.258 75.0732 708.392 75.0732C711.517 75.0732 713.861 77.479 713.861 81.9091Z" fill="black"/>
                            <path d="M300.292 66.8182H297.327L303.869 85H307.039L313.582 66.8182H310.617L305.556 81.6264H305.352L300.292 66.8182ZM316.207 85H327.713V82.6385H318.951V77.0721H327.012V74.7195H318.951V69.1797H327.607V66.8182H316.207V85ZM331.271 85H334.014V77.0721H343.078V85H345.831V66.8182H343.078V74.7195H334.014V66.8182H331.271V85ZM352.569 66.8182H349.826V85H352.569V66.8182ZM371.665 72.7308C371.044 68.8423 367.999 66.5696 364.154 66.5696C359.449 66.5696 355.978 70.0941 355.978 75.9091C355.978 81.7241 359.431 85.2486 364.154 85.2486C368.15 85.2486 371.07 82.745 371.665 79.1495L368.895 79.1406C368.425 81.4666 366.472 82.745 364.172 82.745C361.056 82.745 358.703 80.3569 358.703 75.9091C358.703 71.4968 361.047 69.0732 364.181 69.0732C366.498 69.0732 368.442 70.3782 368.895 72.7308H371.665ZM386.64 66.8182V78.5547C386.64 81.0227 384.935 82.7983 382.165 82.7983C379.404 82.7983 377.691 81.0227 377.691 78.5547V66.8182H374.948V78.7766C374.948 82.5941 377.806 85.3018 382.165 85.3018C386.524 85.3018 389.392 82.5941 389.392 78.7766V66.8182H386.64ZM393.38 85H404.362V82.6385H396.124V66.8182H393.38V85ZM422.577 75.9091C422.577 70.0941 419.097 66.5696 414.392 66.5696C409.669 66.5696 406.198 70.0941 406.198 75.9091C406.198 81.7152 409.669 85.2486 414.392 85.2486C419.097 85.2486 422.577 81.7241 422.577 75.9091ZM419.861 75.9091C419.861 80.3391 417.517 82.745 414.392 82.745C411.258 82.745 408.923 80.3391 408.923 75.9091C408.923 71.479 411.258 69.0732 414.392 69.0732C417.517 69.0732 419.861 71.479 419.861 75.9091Z" fill="black"/>
                            <path d="M17.7774 69.7308C17.156 65.8423 14.1109 63.5696 10.2668 63.5696C5.56152 63.5696 2.09029 67.0941 2.09029 72.9091C2.09029 78.7241 5.54377 82.2486 10.2668 82.2486C14.2618 82.2486 17.1826 79.745 17.7774 76.1495L15.0075 76.1406C14.537 78.4666 12.5839 79.745 10.2845 79.745C7.16841 79.745 4.81578 77.3569 4.81578 72.9091C4.81578 68.4968 7.15954 66.0732 10.2934 66.0732C12.6105 66.0732 14.5548 67.3782 15.0075 69.7308H17.7774ZM21.06 82H32.0419V79.6385H23.8033V63.8182H21.06V82ZM37.9146 63.8182H35.1713V82H37.9146V63.8182ZM41.9096 82H53.4153V79.6385H44.6529V74.0721H52.714V71.7195H44.6529V66.1797H53.3088V63.8182H41.9096V82ZM71.6482 63.8182H68.9316V77.1705H68.7629L59.5122 63.8182H56.9731V82H59.7164V68.6655H59.885L69.1269 82H71.6482V63.8182ZM74.7532 66.1797H80.4173V82H83.1516V66.1797H88.8246V63.8182H74.7532V66.1797ZM91.934 82H103.44V79.6385H94.6773V74.0721H102.738V71.7195H94.6773V66.1797H103.333V63.8182H91.934V82Z" fill="black"/>
                            </svg>