<svg width="1054" height="98" viewBox="0 0 1054 98" fill="none" xmlns="http://www.w3.org/2000/svg">
<rect x="79.551" y="25.2811" width="255.449" height="5.8341" fill="#F8A01A"/>
<ellipse cx="55.5594" cy="24.7949" rx="23.5594" ry="24.7949" fill="#F8A01A"/>
<path d="M875.225 73.9612C874.603 70.0727 871.558 67.8 867.714 67.8C863.009 67.8 859.538 71.3245 859.538 77.1395C859.538 82.9545 862.991 86.479 867.714 86.479C871.709 86.479 874.63 83.9754 875.225 80.3799L872.455 80.371C871.984 82.697 870.031 83.9754 867.732 83.9754C864.616 83.9754 862.263 81.5873 862.263 77.1395C862.263 72.7272 864.607 70.3036 867.741 70.3036C870.058 70.3036 872.002 71.6086 872.455 73.9612H875.225ZM894.301 77.1395C894.301 71.3245 890.821 67.8 886.116 67.8C881.393 67.8 877.921 71.3245 877.921 77.1395C877.921 82.9456 881.393 86.479 886.116 86.479C890.821 86.479 894.301 82.9545 894.301 77.1395ZM891.584 77.1395C891.584 81.5695 889.241 83.9754 886.116 83.9754C882.982 83.9754 880.647 81.5695 880.647 77.1395C880.647 72.7095 882.982 70.3036 886.116 70.3036C889.241 70.3036 891.584 72.7095 891.584 77.1395ZM912.396 68.0486H909.68V81.4009H909.511L900.26 68.0486H897.721V86.2304H900.464V72.8959H900.633L909.875 86.2304H912.396V68.0486ZM916.398 86.2304H919.141V78.3025H926.865V75.9499H919.141V70.4101H927.673V68.0486H916.398V86.2304ZM933.79 68.0486H931.046V86.2304H933.79V68.0486ZM937.785 86.2304H940.528V79.3501H944.257C944.319 79.3501 944.372 79.3501 944.434 79.3501L948.127 86.2304H951.252L947.222 78.8707C949.45 78.045 950.56 76.1896 950.56 73.7482C950.56 70.4012 948.482 68.0486 944.265 68.0486H937.785V86.2304ZM940.528 76.9886V70.4012H943.972C946.68 70.4012 947.799 71.6885 947.799 73.7482C947.799 75.7989 946.68 76.9886 944.008 76.9886H940.528ZM953.898 68.0486V86.2304H956.508V73.0646H956.677L962.039 86.2038H964.205L969.567 73.0734H969.736V86.2304H972.346V68.0486H969.017L963.229 82.1821H963.015L957.227 68.0486H953.898ZM977.87 86.2304L979.539 81.4186H986.642L988.302 86.2304H991.214L984.671 68.0486H981.501L974.958 86.2304H977.87ZM980.338 79.1104L983.019 71.3511H983.161L985.843 79.1104H980.338ZM1008.09 73.9612C1007.46 70.0727 1004.42 67.8 1000.58 67.8C995.87 67.8 992.399 71.3245 992.399 77.1395C992.399 82.9545 995.852 86.479 1000.58 86.479C1004.57 86.479 1007.49 83.9754 1008.09 80.3799L1005.32 80.371C1004.85 82.697 1002.89 83.9754 1000.59 83.9754C997.477 83.9754 995.124 81.5873 995.124 77.1395C995.124 72.7272 997.468 70.3036 1000.6 70.3036C1002.92 70.3036 1004.86 71.6086 1005.32 73.9612H1008.09ZM1014.11 68.0486H1011.37V86.2304H1014.11V68.0486ZM1033.9 77.1395C1033.9 71.3245 1030.42 67.8 1025.72 67.8C1020.99 67.8 1017.52 71.3245 1017.52 77.1395C1017.52 82.9456 1020.99 86.479 1025.72 86.479C1030.42 86.479 1033.9 82.9545 1033.9 77.1395ZM1031.18 77.1395C1031.18 81.5695 1028.84 83.9754 1025.72 83.9754C1022.58 83.9754 1020.25 81.5695 1020.25 77.1395C1020.25 72.7095 1022.58 70.3036 1025.72 70.3036C1028.84 70.3036 1031.18 72.7095 1031.18 77.1395ZM1024.61 66.2286H1026.74L1029.49 62.1359H1026.69L1024.61 66.2286ZM1052 68.0486H1049.28V81.4009H1049.11L1039.86 68.0486H1037.32V86.2304H1040.06V72.8959H1040.23L1049.47 86.2304H1052V68.0486Z" fill="black"/>
<path d="M614.533 78.659H617.179C617.099 75.747 614.524 73.6341 610.831 73.6341C607.182 73.6341 604.386 75.7204 604.386 78.8543C604.386 81.3845 606.197 82.8671 609.118 83.6572L611.266 84.2431C613.21 84.7581 614.711 85.3973 614.711 87.013C614.711 88.7886 613.015 89.9605 610.68 89.9605C608.567 89.9605 606.809 89.0194 606.65 87.0397H603.898C604.075 90.3333 606.623 92.3664 610.698 92.3664C614.968 92.3664 617.427 90.1203 617.427 87.0397C617.427 83.7637 614.507 82.4942 612.198 81.926L610.423 81.4644C609.002 81.1004 607.111 80.4345 607.12 78.6945C607.12 77.1497 608.532 76.0045 610.769 76.0045C612.855 76.0045 614.338 76.9811 614.533 78.659ZM620.706 92.0645H632.211V89.703H623.449V84.1366H631.51V81.784H623.449V76.2442H632.105V73.8827H620.706V92.0645ZM635.769 92.0645H638.512V85.1842H642.241C642.303 85.1842 642.356 85.1842 642.419 85.1842L646.112 92.0645H649.237L645.206 84.7048C647.434 83.8791 648.544 82.0237 648.544 79.5823C648.544 76.2353 646.467 73.8827 642.25 73.8827H635.769V92.0645ZM638.512 82.8227V76.2353H641.957C644.665 76.2353 645.783 77.5226 645.783 79.5823C645.783 81.6331 644.665 82.8227 641.992 82.8227H638.512ZM653.008 73.8827H650.042L656.585 92.0645H659.755L666.298 73.8827H663.332L658.272 88.6909H658.068L653.008 73.8827ZM671.667 73.8827H668.923V92.0645H671.667V73.8827ZM690.763 79.7953C690.141 75.9068 687.096 73.6341 683.252 73.6341C678.547 73.6341 675.076 77.1586 675.076 82.9736C675.076 88.7886 678.529 92.3131 683.252 92.3131C687.247 92.3131 690.168 89.8095 690.763 86.214L687.993 86.2051C687.522 88.5311 685.569 89.8095 683.27 89.8095C680.154 89.8095 677.801 87.4214 677.801 82.9736C677.801 78.5613 680.145 76.1377 683.279 76.1377C685.596 76.1377 687.54 77.4427 687.993 79.7953H690.763ZM696.789 73.8827H694.045V92.0645H696.789V73.8827ZM716.577 82.9736C716.577 77.1586 713.097 73.6341 708.392 73.6341C703.669 73.6341 700.198 77.1586 700.198 82.9736C700.198 88.7797 703.669 92.3131 708.392 92.3131C713.097 92.3131 716.577 88.7886 716.577 82.9736ZM713.861 82.9736C713.861 87.4036 711.517 89.8095 708.392 89.8095C705.258 89.8095 702.923 87.4036 702.923 82.9736C702.923 78.5436 705.258 76.1377 708.392 76.1377C711.517 76.1377 713.861 78.5436 713.861 82.9736Z" fill="black"/>
<path d="M300.292 68.0486H297.327L303.869 86.2304H307.039L313.582 68.0486H310.617L305.556 82.8568H305.352L300.292 68.0486ZM316.207 86.2304H327.713V83.8689H318.951V78.3025H327.012V75.9499H318.951V70.4101H327.607V68.0486H316.207V86.2304ZM331.271 86.2304H334.014V78.3025H343.078V86.2304H345.831V68.0486H343.078V75.9499H334.014V68.0486H331.271V86.2304ZM352.569 68.0486H349.826V86.2304H352.569V68.0486ZM371.665 73.9612C371.044 70.0727 367.999 67.8 364.154 67.8C359.449 67.8 355.978 71.3245 355.978 77.1395C355.978 82.9545 359.431 86.479 364.154 86.479C368.15 86.479 371.07 83.9754 371.665 80.3799L368.895 80.371C368.425 82.697 366.472 83.9754 364.172 83.9754C361.056 83.9754 358.703 81.5873 358.703 77.1395C358.703 72.7272 361.047 70.3036 364.181 70.3036C366.498 70.3036 368.442 71.6086 368.895 73.9612H371.665ZM386.64 68.0486V79.7851C386.64 82.2531 384.935 84.0287 382.165 84.0287C379.404 84.0287 377.691 82.2531 377.691 79.7851V68.0486H374.948V80.007C374.948 83.8245 377.806 86.5323 382.165 86.5323C386.524 86.5323 389.392 83.8245 389.392 80.007V68.0486H386.64ZM393.38 86.2304H404.362V83.8689H396.124V68.0486H393.38V86.2304ZM422.577 77.1395C422.577 71.3245 419.097 67.8 414.392 67.8C409.669 67.8 406.198 71.3245 406.198 77.1395C406.198 82.9456 409.669 86.479 414.392 86.479C419.097 86.479 422.577 82.9545 422.577 77.1395ZM419.861 77.1395C419.861 81.5695 417.517 83.9754 414.392 83.9754C411.258 83.9754 408.923 81.5695 408.923 77.1395C408.923 72.7095 411.258 70.3036 414.392 70.3036C417.517 70.3036 419.861 72.7095 419.861 77.1395Z" fill="black"/>
<path d="M17.7774 71.0442C17.156 67.1557 14.1109 64.883 10.2668 64.883C5.56152 64.883 2.09029 68.4075 2.09029 74.2224C2.09029 80.0374 5.54377 83.5619 10.2668 83.5619C14.2618 83.5619 17.1826 81.0584 17.7774 77.4629L15.0075 77.454C14.537 79.78 12.5839 81.0584 10.2845 81.0584C7.16841 81.0584 4.81578 78.6702 4.81578 74.2224C4.81578 69.8102 7.15954 67.3865 10.2934 67.3865C12.6105 67.3865 14.5548 68.6915 15.0075 71.0442H17.7774ZM21.06 83.3134H32.0419V80.9518H23.8033V65.1315H21.06V83.3134ZM37.9146 65.1315H35.1713V83.3134H37.9146V65.1315ZM41.9096 83.3134H53.4153V80.9518H44.6529V75.3854H52.714V73.0328H44.6529V67.493H53.3088V65.1315H41.9096V83.3134ZM71.6482 65.1315H68.9316V78.4838H68.7629L59.5122 65.1315H56.9731V83.3134H59.7164V69.9788H59.885L69.1269 83.3134H71.6482V65.1315ZM74.7532 67.493H80.4173V83.3134H83.1516V67.493H88.8246V65.1315H74.7532V67.493ZM91.934 83.3134H103.44V80.9518H94.6773V75.3854H102.738V73.0328H94.6773V67.493H103.333V65.1315H91.934V83.3134Z" fill="black"/>
<rect x="806.095" y="24.957" width="151.499" height="5.50998" fill="#E0E0E0"/>
<ellipse cx="964.695" cy="27.712" rx="21.3046" ry="24.7949" fill="#E0E0E0"/>
<rect x="384.551" y="25.2811" width="255.449" height="5.8341" fill="#F8A01A"/>
<ellipse cx="360.559" cy="24.7949" rx="23.5594" ry="24.7949" fill="#F8A01A"/>
<rect x="661.305" y="24.957" width="144.398" height="5.50998" fill="#E0E0E0"/>
<ellipse cx="661.305" cy="27.712" rx="21.3046" ry="24.7949" fill="#F8A01A"/>
<ellipse rx="14.2031" ry="16.53" transform="matrix(-1 0 0 1 661.305 27.712)" fill="white"/>
</svg>
